<svg width="49" height="35" viewBox="0 0 49 35" fill="none" xmlns="http://www.w3.org/2000/svg">
    <path d="M9.84472 31.8671C9.84472 31.6234 9.79213 31.4371 9.69385 31.3207C9.58727 31.2111 9.35611 31.1495 8.99345 31.1495H8.22246C7.89164 31.1495 7.6674 31.2139 7.55389 31.3385C7.44454 31.4645 7.38364 31.6412 7.38364 31.8658V32.8957C7.38364 33.1258 7.44316 33.3038 7.55389 33.4284C7.6674 33.5544 7.89025 33.6174 8.22246 33.6174H8.99345C9.35611 33.6174 9.58035 33.5544 9.68416 33.4463C9.78105 33.3312 9.83503 33.1532 9.84472 32.9039V31.8671ZM10.8842 34.3091C10.6531 34.5351 10.2392 34.6474 9.62464 34.6474H7.61757C7.01268 34.6474 6.59465 34.5419 6.36072 34.3228C6.12126 34.1105 6.0036 33.7791 6.0036 33.3449V31.4248C6.0036 30.9838 6.11988 30.6647 6.36072 30.4469C6.59465 30.2305 7.01129 30.1223 7.61757 30.1223H9.62464C10.2392 30.1223 10.6545 30.2374 10.8842 30.4565C11.1085 30.6811 11.2165 31.0029 11.2165 31.4248V33.3449C11.2165 33.7654 11.1085 34.0886 10.8842 34.3091Z" fill="white"/>
    <path d="M16.8941 34.3091C16.6712 34.5351 16.2491 34.6474 15.6428 34.6474H13.6343C13.0294 34.6474 12.6059 34.5419 12.3706 34.3228C12.1353 34.1105 12.019 33.7791 12.019 33.3449V31.4248C12.019 30.9838 12.1353 30.6647 12.3706 30.4469C12.6059 30.2305 13.0294 30.1223 13.6343 30.1223H15.6428C16.2477 30.1223 16.6712 30.2374 16.8941 30.4565C17.1197 30.6811 17.2332 31.0029 17.2332 31.4248V31.8671H15.8643C15.8643 31.6234 15.8047 31.4371 15.7051 31.3207C15.5999 31.2111 15.3673 31.1495 15.0047 31.1495H14.2406C13.9042 31.1495 13.68 31.2139 13.572 31.3385C13.4558 31.4645 13.4018 31.6412 13.4018 31.8658V32.8957C13.4018 33.1258 13.4544 33.3038 13.572 33.4284C13.68 33.5544 13.9042 33.6174 14.2406 33.6174H15.0047C15.3673 33.6174 15.5999 33.5544 15.7051 33.4463C15.8047 33.3312 15.8643 33.1449 15.8643 32.8943H17.2332V33.3422C17.2318 33.7654 17.1183 34.0886 16.8941 34.3091Z" fill="white"/>
    <path d="M19.4013 34.647H18.0406L18.0309 33.3446V31.4244L18.0406 30.1206H19.4013V31.8531H21.8651V30.1206H23.2452V31.4244V33.3446V34.647H21.8651V32.883H19.4013V34.647Z" fill="white"/>
    <path d="M25.805 32.8834H25.4188C25.4216 33.1258 25.4825 33.3052 25.5918 33.4312C25.7081 33.5572 25.9296 33.6202 26.2618 33.6202H27.0341H29.2571V34.6474H27.6695H25.6569C25.052 34.6474 24.634 34.5419 24.3931 34.3241C24.1606 34.1091 24.0429 33.7791 24.0429 33.3449V31.4248C24.0429 30.9851 24.1592 30.6647 24.3931 30.4469C24.634 30.2305 25.052 30.1223 25.6569 30.1223H27.6695H29.2571V31.1509H27.0341H26.2618C25.9309 31.1509 25.7081 31.2152 25.5918 31.3399C25.4825 31.4659 25.4216 31.6343 25.4188 31.8548H25.805H29.2571V32.8834H25.805Z" fill="white"/>
    <path d="M39.8004 31.1492H37.9179V30.1206H39.5014H41.5085H43.1294V31.1492H41.1666V34.647H39.8004V31.1492Z" fill="white"/>
    <path d="M31.3754 32.3982C31.3754 31.8312 31.8516 31.8942 31.8516 31.8942H33.2344V32.8515H31.8419C31.8405 32.8515 31.3754 32.8693 31.3754 32.3982ZM35.9833 32.8515H34.5922V31.8942H35.9737C35.9737 31.8942 36.4498 31.8326 36.4498 32.3982C36.4498 32.8693 35.9833 32.8515 35.9833 32.8515ZM36.7073 30.9382H34.5908V30.1206H33.2413V30.9382H31.0667C31.0667 30.9382 29.8348 30.978 29.8348 32.3585C29.8348 33.7431 31.0985 33.7527 31.0985 33.7527H33.2413V34.647H34.5908V33.7527H36.6741C36.6741 33.7527 37.9447 33.7431 37.9447 32.3585C37.9447 30.978 36.7073 30.9382 36.7073 30.9382Z" fill="white"/>
    <path d="M3.38579 32.0561H1.36072V31.1509H3.38579C3.63495 31.1509 3.84257 31.3522 3.84257 31.6042C3.84396 31.8534 3.63495 32.0561 3.38579 32.0561ZM4.86549 30.4565C4.64125 30.236 4.226 30.1223 3.6128 30.1223H6.10352e-05V34.6487H1.36072V33.0861H3.6128C4.226 33.0861 4.64264 32.9765 4.86549 32.7505C5.08835 32.5273 5.20462 32.2027 5.20462 31.7822V31.4248C5.20462 31.0016 5.08973 30.6797 4.86549 30.4565Z" fill="white"/>
    <path d="M47.5841 33.1652C47.5841 33.4103 47.3779 33.6185 47.126 33.6185H45.1064V32.7091H47.126C47.3779 32.7077 47.5841 32.9145 47.5841 33.1652ZM48.9434 33.3446V32.9857C48.9434 32.5653 48.8354 32.2407 48.6126 32.0133C48.38 31.7901 47.9648 31.6833 47.3571 31.6833H45.1078V30.1206H43.7402V34.6457H47.3571C47.9648 34.6457 48.3814 34.5333 48.6126 34.3087C48.834 34.0882 48.9434 33.765 48.9434 33.3446Z" fill="white"/>
    <path fill-rule="evenodd" clip-rule="evenodd" d="M19.4668 24.5079V17.5875L15.0001 13.1679L15.0277 6.21187H17.2466V4.01645H19.4668V1.81967H21.6815V-0.000488281H27.2335V1.83062H29.4524V4.01645H31.6726V6.21187H33.8873V13.1912L29.4524 17.5793V24.5079H19.4668Z" fill="white"/>
    <path fill-rule="evenodd" clip-rule="evenodd" d="M23.522 11.7056H25.3726V22.6772H23.522V11.7056ZM25.7422 13.5353H27.5873V22.6785H25.7422V13.5353ZM21.3073 13.5353H23.1524V22.6785H21.3073V13.5353Z" fill="#FFD300"/>
    <path fill-rule="evenodd" clip-rule="evenodd" d="M27.9611 5.84751H29.8117V14.6251L27.9611 16.4562V5.84751ZM27.5915 13.1692H25.7409V3.6562H27.5915V13.1692ZM23.522 1.83057H25.3727V11.3395H23.522V1.83057ZM23.151 13.1692H21.3004V3.6562H23.151V13.1692ZM19.0871 5.84751H20.9377V16.4644L19.0871 14.6333V5.84751ZM16.8668 8.04429H18.7175V14.2676L16.8668 12.4365V8.04429ZM30.1813 8.04429H32.0264L32.0237 12.4379L30.1827 14.2594V8.04429H30.1813Z" fill="url(#paint0_linear_232_1046)"/>
    <defs>
        <linearGradient id="paint0_linear_232_1046" x1="24.4464" y1="16.4642" x2="24.4464" y2="1.83051" gradientUnits="userSpaceOnUse">
            <stop stop-color="#001F03"/>
            <stop offset="0.33" stop-color="#004C1D"/>
            <stop offset="0.3777" stop-color="#007628"/>
            <stop offset="0.4206" stop-color="#519B2A"/>
            <stop offset="0.4525" stop-color="#78B327"/>
            <stop offset="0.47" stop-color="#86BC25"/>
            <stop offset="0.5014" stop-color="#A9C811"/>
            <stop offset="0.5441" stop-color="#CED600"/>
            <stop offset="0.5785" stop-color="#E1DE00"/>
            <stop offset="0.6" stop-color="#E8E100"/>
            <stop offset="0.78" stop-color="#95C11F"/>
            <stop offset="1" stop-color="#005F27"/>
        </linearGradient>
    </defs>
</svg>
