<svg width="66" height="25" viewBox="0 0 66 25" fill="none" xmlns="http://www.w3.org/2000/svg">
    <path d="M26.7392 21.7277C26.7392 21.484 26.6866 21.2977 26.5883 21.1813C26.4817 21.0717 26.2506 21.0101 25.8879 21.0101H25.1169C24.7861 21.0101 24.5619 21.0745 24.4484 21.1991C24.339 21.3251 24.2781 21.5018 24.2781 21.7264V22.7563C24.2781 22.9864 24.3376 23.1644 24.4484 23.289C24.5619 23.415 24.7847 23.478 25.1169 23.478H25.8879C26.2506 23.478 26.4748 23.415 26.5786 23.3068C26.6755 23.1918 26.7295 23.0138 26.7392 22.7645V21.7277ZM27.7787 24.1697C27.5476 24.3957 27.1337 24.508 26.5191 24.508H24.512C23.9071 24.508 23.4891 24.4025 23.2552 24.1834C23.0157 23.9711 22.8981 23.6397 22.8981 23.2055V21.2854C22.8981 20.8444 23.0143 20.5253 23.2552 20.3075C23.4891 20.0911 23.9058 19.9829 24.512 19.9829H26.5191C27.1337 19.9829 27.5489 20.098 27.7787 20.3171C28.003 20.5417 28.1109 20.8635 28.1109 21.2854V23.2055C28.1109 23.626 28.003 23.9492 27.7787 24.1697Z" fill="white"/>
    <path d="M33.7886 24.1697C33.5657 24.3957 33.1435 24.508 32.5373 24.508H30.5288C29.9239 24.508 29.5003 24.4025 29.265 24.1834C29.0297 23.9711 28.9135 23.6397 28.9135 23.2055V21.2854C28.9135 20.8444 29.0297 20.5253 29.265 20.3075C29.5003 20.0911 29.9239 19.9829 30.5288 19.9829H32.5373C33.1421 19.9829 33.5657 20.098 33.7886 20.3171C34.0142 20.5417 34.1277 20.8635 34.1277 21.2854V21.7277H32.7587C32.7587 21.484 32.6992 21.2977 32.5995 21.1813C32.4943 21.0717 32.2618 21.0101 31.8991 21.0101H31.1351C30.7987 21.0101 30.5745 21.0745 30.4665 21.1991C30.3502 21.3251 30.2963 21.5018 30.2963 21.7264V22.7563C30.2963 22.9864 30.3489 23.1644 30.4665 23.289C30.5745 23.415 30.7987 23.478 31.1351 23.478H31.8991C32.2618 23.478 32.4943 23.415 32.5995 23.3068C32.6992 23.1918 32.7587 23.0055 32.7587 22.7549H34.1277V23.2028C34.1263 23.626 34.0128 23.9492 33.7886 24.1697Z" fill="white"/>
    <path d="M36.2958 24.5076H34.9351L34.9254 23.2052V21.285L34.9351 19.9812H36.2958V21.7137H38.7596V19.9812H40.1396V21.285V23.2052V24.5076H38.7596V22.7436H36.2958V24.5076Z" fill="white"/>
    <path d="M42.6994 22.744H42.3133C42.316 22.9864 42.3769 23.1658 42.4863 23.2918C42.6026 23.4178 42.824 23.4808 43.1562 23.4808H43.9286H46.1516V24.508H44.564H42.5513C41.9465 24.508 41.5284 24.4025 41.2876 24.1847C41.055 23.9697 40.9374 23.6397 40.9374 23.2055V21.2854C40.9374 20.8457 41.0537 20.5253 41.2876 20.3075C41.5284 20.0911 41.9465 19.9829 42.5513 19.9829H44.564H46.1516V21.0115H43.9286H43.1562C42.8254 21.0115 42.6026 21.0758 42.4863 21.2005C42.3769 21.3265 42.316 21.4949 42.3133 21.7154H42.6994H46.1516V22.744H42.6994Z" fill="white"/>
    <path d="M56.6949 21.0097H54.8124V19.9812H56.3959H58.403H60.0238V21.0097H58.0611V24.5076H56.6949V21.0097Z" fill="white"/>
    <path d="M48.2699 22.2588C48.2699 21.6918 48.746 21.7548 48.746 21.7548H50.1288V22.7121H48.7363C48.7349 22.7121 48.2699 22.7299 48.2699 22.2588ZM52.8778 22.7121H51.4867V21.7548H52.8681C52.8681 21.7548 53.3443 21.6932 53.3443 22.2588C53.3443 22.7299 52.8778 22.7121 52.8778 22.7121ZM53.6017 20.7988H51.4853V19.9812H50.1357V20.7988H47.9612C47.9612 20.7988 46.7292 20.8386 46.7292 22.2191C46.7292 23.6037 47.993 23.6133 47.993 23.6133H50.1357V24.5076H51.4853V23.6133H53.5685C53.5685 23.6133 54.8392 23.6037 54.8392 22.2191C54.8392 20.8386 53.6017 20.7988 53.6017 20.7988Z" fill="white"/>
    <path d="M20.2803 21.9167H18.2552V21.0115H20.2803C20.5294 21.0115 20.737 21.2128 20.737 21.4648C20.7384 21.714 20.5294 21.9167 20.2803 21.9167ZM21.76 20.3171C21.5357 20.0966 21.1205 19.9829 20.5073 19.9829H16.8945V24.5093H18.2552V22.9467H20.5073C21.1205 22.9467 21.5371 22.8371 21.76 22.6111C21.9828 22.3879 22.0991 22.0633 22.0991 21.6428V21.2854C22.0991 20.8622 21.9842 20.5403 21.76 20.3171Z" fill="white"/>
    <path d="M64.4787 23.0257C64.4787 23.2709 64.2724 23.4791 64.0205 23.4791H62.001V22.5697H64.0205C64.2724 22.5683 64.4787 22.7751 64.4787 23.0257ZM65.8379 23.2052V22.8463C65.8379 22.4259 65.73 22.1013 65.5071 21.8739C65.2746 21.6507 64.8593 21.5439 64.2516 21.5439H62.0023V19.9812H60.6348V24.5063H64.2516C64.8593 24.5063 65.2759 24.3939 65.5071 24.1693C65.7286 23.9488 65.8379 23.6256 65.8379 23.2052Z" fill="white"/>
    <path fill-rule="evenodd" clip-rule="evenodd" d="M4.46677 24.5084V17.588L0 13.1684L0.0276854 6.21235H2.24654V4.01694H4.46677V1.82015H6.68147V0H12.2334V1.83111H14.4523V4.01694H16.6725V6.21235H18.8872V13.1917L14.4523 17.5798V24.5084H4.46677Z" fill="white"/>
    <path fill-rule="evenodd" clip-rule="evenodd" d="M8.52183 11.7061H10.3725V22.6777H8.52183V11.7061ZM10.7421 13.5358H12.5872V22.679H10.7421V13.5358ZM6.30713 13.5358H8.15224V22.679H6.30713V13.5358Z" fill="#FFD300"/>
    <path fill-rule="evenodd" clip-rule="evenodd" d="M12.961 5.84799H14.8116V14.6255L12.961 16.4567V5.84799ZM12.5914 13.1697H10.7407V3.65669H12.5914V13.1697ZM8.52188 1.83105H10.3725V11.34H8.52188V1.83105ZM8.15091 13.1697H6.30025V3.65669H8.15091V13.1697ZM4.08693 5.84799H5.93759V16.4649L4.08693 14.6338V5.84799ZM1.8667 8.04478H3.71736V14.2681L1.8667 12.437V8.04478ZM15.1812 8.04478H17.0263L17.0236 12.4383L15.1826 14.2599V8.04478H15.1812Z" fill="url(#paint0_linear_201_4914)"/>
    <defs>
        <linearGradient id="paint0_linear_201_4914" x1="9.44625" y1="16.4647" x2="9.44625" y2="1.831" gradientUnits="userSpaceOnUse">
            <stop stop-color="#001F03"/>
            <stop offset="0.33" stop-color="#004C1D"/>
            <stop offset="0.3777" stop-color="#007628"/>
            <stop offset="0.4206" stop-color="#519B2A"/>
            <stop offset="0.4525" stop-color="#78B327"/>
            <stop offset="0.47" stop-color="#86BC25"/>
            <stop offset="0.5014" stop-color="#A9C811"/>
            <stop offset="0.5441" stop-color="#CED600"/>
            <stop offset="0.5785" stop-color="#E1DE00"/>
            <stop offset="0.6" stop-color="#E8E100"/>
            <stop offset="0.78" stop-color="#95C11F"/>
            <stop offset="1" stop-color="#005F27"/>
        </linearGradient>
    </defs>
</svg>
