<svg width="27" height="30" viewBox="0 0 27 30" fill="none" xmlns="http://www.w3.org/2000/svg">
    <path d="M7.25628 10.3247C7.25628 11.5864 7.75749 12.7964 8.64963 13.6886C9.54178 14.5807 10.7518 15.0819 12.0135 15.0819C13.2752 15.0819 14.4852 14.5807 15.3773 13.6886C16.2695 12.7964 16.7707 11.5864 16.7707 10.3247M12.0135 17.4605C6.75678 17.4605 2.49908 19.5894 2.49908 22.2177V24.5963H11.4188L14.9867 17.6972C14.0514 17.5436 13.0519 17.4605 12.0135 17.4605ZM11.4188 1.99963C11.062 1.99963 10.8242 2.24939 10.8242 2.59428V6.16218H9.63488V3.18893C9.63488 3.18893 6.95896 4.21173 6.95896 7.64881C6.95896 7.64881 6.06698 7.81531 6.06698 9.13543H17.96C17.9005 7.81531 17.068 7.64881 17.068 7.64881C17.068 4.21173 14.3921 3.18893 14.3921 3.18893V6.16218H13.2028V2.59428C13.2028 2.24939 12.9768 1.99963 12.6081 1.99963H11.4188Z" stroke="#B6F09C" stroke-width="1.10003"/>
    <path d="M17.8985 21.4374V18.2423ZM23.5751 27.5686C23.7323 27.5689 23.887 27.5291 24.0245 27.4529C24.1621 27.3768 24.2779 27.2668 24.3611 27.1334C24.4443 27 24.492 26.8475 24.4999 26.6905C24.5077 26.5335 24.4754 26.3771 24.4059 26.236L18.6485 14.507C18.558 14.3228 18.4178 14.1675 18.2436 14.0589C18.0694 13.9504 17.8682 13.8928 17.6629 13.8928C17.4577 13.8928 17.2565 13.9504 17.0823 14.0589C16.9081 14.1675 16.7678 14.3228 16.6774 14.507L10.92 26.236C10.8508 26.3771 10.8187 26.5335 10.8266 26.6904C10.8346 26.8473 10.8824 26.9996 10.9655 27.1329C11.0487 27.2663 11.1644 27.3762 11.3018 27.4524C11.4392 27.5287 11.5937 27.5686 11.7508 27.5686H23.5751Z" stroke="#B6F09C" stroke-width="1.10003"/>
    <path d="M17.4298 25.2088C17.1797 25.2088 16.9398 25.1094 16.763 24.9326C16.5861 24.7557 16.4868 24.5158 16.4868 24.2657C16.4868 24.0156 16.5861 23.7757 16.763 23.5989C16.9398 23.422 17.1797 23.3226 17.4298 23.3226M17.4298 25.2088C17.6799 25.2088 17.9198 25.1094 18.0967 24.9326C18.2735 24.7557 18.3729 24.5158 18.3729 24.2657C18.3729 24.0156 18.2735 23.7757 18.0967 23.5989C17.9198 23.422 17.6799 23.3226 17.4298 23.3226" fill="#B6F09C"/>
</svg>
