<svg width="24" height="24" viewBox="0 0 24 24" fill="none" xmlns="http://www.w3.org/2000/svg">
    <path d="M19.0001 15.5V11.9C19.0001 9.95 18.3211 8.296 16.9631 6.938C15.6051 5.58 13.9507 4.90067 12.0001 4.9C10.0501 4.9 8.39606 5.57933 7.03806 6.938C5.68006 8.29667 5.00073 9.95067 5.00006 11.9V17C5.00006 17.2833 4.90406 17.521 4.71206 17.713C4.52006 17.905 4.28273 18.0007 4.00006 18C3.45006 18 2.97939 17.8043 2.58806 17.413C2.19673 17.0217 2.00073 16.5507 2.00006 16V14C2.00006 13.65 2.08773 13.321 2.26306 13.013C2.43839 12.705 2.68406 12.459 3.00006 12.275L3.07506 10.95C3.20839 9.81667 3.53773 8.76667 4.06306 7.8C4.58839 6.83333 5.24673 5.99167 6.03806 5.275C6.82939 4.55833 7.73739 4 8.76206 3.6C9.78673 3.2 10.8661 3 12.0001 3C13.1334 3 14.2084 3.2 15.2251 3.6C16.2417 4 17.1501 4.55433 17.9501 5.263C18.7501 5.971 19.4084 6.80833 19.9251 7.775C20.4417 8.74167 20.7751 9.79167 20.9251 10.925L21.0001 12.225C21.3167 12.375 21.5627 12.6 21.7381 12.9C21.9134 13.2 22.0007 13.5167 22.0001 13.85V16C22.0001 16.3333 22.0001 17 21.5001 17.5C21.1495 17.8506 20.5001 18 20.0001 18C19.5001 18 19.0001 17.5 19.0001 17C19.0001 16.5 19.0001 16 19.0001 15.5ZM9.00006 14C8.71673 14 8.47939 13.904 8.28806 13.712C8.09673 13.52 8.00073 13.2827 8.00006 13C8.00006 12.7167 8.09606 12.4793 8.28806 12.288C8.48006 12.0967 8.71739 12.0007 9.00006 12C9.28339 12 9.52106 12.096 9.71306 12.288C9.90506 12.48 10.0007 12.7173 10.0001 13C10.0001 13.2833 9.90406 13.521 9.71206 13.713C9.52006 13.905 9.28273 14.0007 9.00006 14ZM15.0001 14C14.7167 14 14.4794 13.904 14.2881 13.712C14.0967 13.52 14.0007 13.2827 14.0001 13C14.0001 12.7167 14.0961 12.4793 14.2881 12.288C14.4801 12.0967 14.7174 12.0007 15.0001 12C15.2834 12 15.5211 12.096 15.7131 12.288C15.9051 12.48 16.0007 12.7173 16.0001 13C16.0001 13.2833 15.9041 13.521 15.7121 13.713C15.5201 13.905 15.2827 14.0007 15.0001 14ZM6.02506 12.45C5.90839 10.6833 6.44173 9.16667 7.62506 7.9C8.80839 6.63333 10.2834 6 12.0501 6C13.5334 6 14.8377 6.47067 15.9631 7.412C17.0884 8.35333 17.7674 9.558 18.0001 11.026C16.4834 11.0087 15.0877 10.6 13.8131 9.8C12.5384 9 11.5591 7.91667 10.8751 6.55C10.6084 7.88333 10.0461 9.071 9.18806 10.113C8.33006 11.155 7.27573 11.934 6.02506 12.45Z" fill="#B6F09C"/>
</svg>
